<svg xmlns="http://www.w3.org/2000/svg" viewBox="0 0 512 512">
  <defs>
    <linearGradient id="bgGrad" x1="0%" y1="0%" x2="100%" y2="100%">
      <stop offset="0%" style="stop-color:#10b981"/>
      <stop offset="100%" style="stop-color:#059669"/>
    </linearGradient>
  </defs>
  <!-- Background -->
  <rect width="512" height="512" rx="100" fill="url(#bgGrad)"/>
  <!-- Hand icon (simplified) -->
  <g fill="white" transform="translate(100, 80) scale(0.6)">
    <!-- Palm -->
    <path d="M260,580 C180,580 120,500 120,400 L120,200 C120,160 150,130 190,130 C230,130 260,160 260,200 L260,250 L260,200 C260,160 290,130 330,130 C370,130 400,160 400,200 L400,250 L400,200 C400,160 430,130 470,130 C510,130 540,160 540,200 L540,400 C540,500 480,580 400,580 Z"/>
  </g>
  <!-- Plus sign -->
  <g fill="white" transform="translate(320, 320)">
    <rect x="-60" y="-15" width="120" height="30" rx="15"/>
    <rect x="-15" y="-60" width="30" height="120" rx="15"/>
  </g>
</svg>
